<?xml version="1.0" encoding="UTF-8"?>
<svg version="1.1" xmlns="http://www.w3.org/2000/svg" width="2048" height="2048">
<path d="M0 0 C1.14346394 -0.00165078 2.28692788 -0.00330156 3.46504225 -0.00500236 C6.63548926 -0.00856962 9.80589858 -0.00768025 12.97634521 -0.00490058 C16.43974479 -0.00297335 19.90313879 -0.00686341 23.36653683 -0.00999737 C29.45885068 -0.01470712 35.55115642 -0.01569663 41.6434718 -0.01426902 C50.76409901 -0.01214753 59.88471781 -0.01576175 69.00534372 -0.0204838 C84.54971707 -0.02835755 100.09408813 -0.03144586 115.63846332 -0.03192973 C131.39422529 -0.032432 147.14998468 -0.03507766 162.9057458 -0.04033732 C163.9004368 -0.04066746 164.89512779 -0.04099759 165.91996093 -0.04133773 C169.97112548 -0.04268772 174.02229003 -0.04405038 178.07345457 -0.04542983 C226.0468606 -0.0617361 274.02026615 -0.06811897 321.99367449 -0.0728777 C345.88106122 -0.07526061 369.76844768 -0.07896403 393.6558342 -0.0829148 C470.27419362 -0.09557976 546.89255302 -0.10636349 623.51091347 -0.10975526 C627.17321663 -0.1099175 630.8355198 -0.11008306 634.49782297 -0.11024964 C641.84266502 -0.11058344 649.18750706 -0.11091392 656.53234911 -0.1112442 C665.13142696 -0.1116311 673.73050481 -0.11202071 682.32958267 -0.11241527 C684.79071136 -0.11252769 687.25184006 -0.1126391 689.71296876 -0.11274952 C768.75303358 -0.11629883 847.79308931 -0.13137643 926.83315067 -0.15468726 C983.62496347 -0.17142976 1040.41677455 -0.18690433 1097.20858985 -0.19142222 C1098.96067046 -0.19156245 1098.96067046 -0.19156245 1100.74814664 -0.19170551 C1126.39049885 -0.19372461 1152.03285103 -0.19488061 1177.67520331 -0.1952341 C1186.85075381 -0.19537027 1196.02630431 -0.19557927 1205.20185481 -0.19582735 C1207.48450737 -0.19588891 1209.76715994 -0.19594723 1212.0498125 -0.1960023 C1248.41673394 -0.19692196 1284.78364589 -0.20688834 1321.15056422 -0.22145979 C1357.78449063 -0.23607947 1394.41840541 -0.24111533 1431.05233423 -0.23304025 C1436.11708453 -0.2319249 1441.18183485 -0.23091423 1446.24658519 -0.22996593 C1447.7358004 -0.22968097 1447.7358004 -0.22968097 1449.25510076 -0.22939027 C1464.96146458 -0.22665894 1480.66780684 -0.23399112 1496.37416598 -0.24553929 C1511.82679908 -0.25669082 1527.27940178 -0.25710059 1542.73203537 -0.24616911 C1551.78545695 -0.24008424 1560.83878662 -0.24213649 1569.89219949 -0.25642108 C1575.91533456 -0.26509795 1581.93840243 -0.26276471 1587.96153341 -0.25172237 C1591.36924468 -0.24577606 1594.7766317 -0.24596296 1598.18435309 -0.25640723 C1618.13832227 -0.31352264 1637.50663489 0.96560424 1656.9302724 5.8151505 C1657.96015277 6.06861241 1658.99003314 6.32207433 1660.05112201 6.58321691 C1675.95895186 10.64515339 1691.11527432 16.38399175 1705.5787099 24.14522862 C1707.42154122 25.12301781 1709.28080414 26.05880361 1711.1490224 26.9870255 C1738.1242581 40.57552174 1762.9953427 62.31586631 1781.4302724 86.1276505 C1782.07415912 86.95692052 1782.07415912 86.95692052 1782.73105365 87.80294347 C1807.65219386 120.13040236 1822.64874489 157.84003353 1828.4302724 198.1276505 C1828.68574956 199.83622887 1828.68574956 199.83622887 1828.94638787 201.57932397 C1829.60414958 206.91215168 1829.56887183 212.22067715 1829.5579229 217.58715433 C1829.56039907 219.30270274 1829.56039907 219.30270274 1829.56292526 221.0529087 C1829.56649663 224.22868351 1829.56560072 227.40442081 1829.56282348 230.58019525 C1829.56089829 234.04764559 1829.56478499 237.51509031 1829.56792027 240.98253909 C1829.57263259 247.08354664 1829.57361885 253.18454607 1829.57219192 259.28555515 C1829.57007143 268.41919788 1829.57368324 277.55283221 1829.5784067 286.68647365 C1829.5862825 302.25259759 1829.58936886 317.81871924 1829.58985263 333.38484502 C1829.59035482 349.16360198 1829.59299971 364.94235637 1829.59826022 380.72111249 C1829.59859036 381.71709515 1829.59892049 382.71307781 1829.59926063 383.73924177 C1829.60061061 387.79563814 1829.60197328 391.8520345 1829.60335273 395.90843086 C1829.61966101 443.94944147 1829.62604214 491.99045159 1829.6308006 540.0314645 C1829.63318332 563.95184537 1829.6368867 587.87222596 1829.6408377 611.79260661 C1829.65350287 688.51346964 1829.66428656 765.23433264 1829.66767816 841.95519669 C1829.6678404 845.62258356 1829.66800596 849.28997043 1829.66817254 852.9573573 C1829.66850634 860.31241996 1829.66883682 867.66748262 1829.6691671 875.02254528 C1829.669554 883.63362645 1829.66994361 892.24470762 1829.67033817 900.85578879 C1829.67045059 903.32035494 1829.670562 905.78492108 1829.67067242 908.24948722 C1829.67422174 987.40022924 1829.68929928 1066.55096219 1829.71261016 1145.70170074 C1829.72935219 1202.5713134 1829.74482704 1259.44092434 1829.74934512 1316.31053948 C1829.74948535 1318.06494888 1829.74948535 1318.06494888 1829.74962841 1319.85480089 C1829.75164749 1345.5310025 1829.75280351 1371.20720409 1829.753157 1396.88340578 C1829.75329317 1406.07103188 1829.75350217 1415.25865798 1829.75375025 1424.44628407 C1829.75381181 1426.73194983 1829.75387013 1429.01761558 1829.7539252 1431.30328134 C1829.75484494 1467.72143376 1829.76481231 1504.13957671 1829.77938269 1540.55772601 C1829.79400101 1577.24252513 1829.79903908 1613.92731262 1829.79096315 1650.61211413 C1829.78984779 1655.68340097 1829.78883713 1660.75468783 1829.78788882 1665.8259747 C1829.78769886 1666.82007078 1829.78750889 1667.81416685 1829.78731316 1668.83838705 C1829.78458136 1684.56799641 1829.79191559 1700.29758424 1829.80346219 1716.02718892 C1829.81461103 1731.50098932 1829.81502617 1746.97475934 1829.80409201 1762.44856022 C1829.79800495 1771.51554261 1829.80006529 1780.58243325 1829.81434398 1789.64940696 C1829.82301579 1795.68025818 1829.82069357 1801.71104226 1829.80964527 1807.74188939 C1829.80369446 1811.15481018 1829.80389519 1814.56740691 1829.81433013 1817.98033792 C1829.87042663 1837.62449136 1828.47273232 1856.44836706 1823.7427724 1875.5651505 C1823.48931049 1876.59954259 1823.23584857 1877.63393468 1822.97470599 1878.69967198 C1818.9456431 1894.54643315 1813.28084682 1909.75070218 1805.50302631 1924.13839269 C1804.36870802 1926.24181221 1803.26522239 1928.35999255 1802.16074115 1930.479213 C1788.02598273 1957.17562596 1767.52851821 1981.82284486 1743.4302724 2000.1276505 C1742.82860248 2000.59461339 1742.22693256 2001.06157628 1741.60703021 2001.54268956 C1704.59602104 2030.12635214 1657.96836614 2048.34767392 1610.86629814 2048.25645167 C1609.72345535 2048.25822668 1608.58061256 2048.26000169 1607.40313818 2048.26183048 C1604.23443172 2048.26574263 1601.06576241 2048.26520231 1597.89705564 2048.26277278 C1594.43553894 2048.2612266 1590.97402846 2048.26549116 1587.51251388 2048.26899955 C1581.42349638 2048.274368 1575.33448659 2048.27601723 1569.2454669 2048.2752488 C1560.12969937 2048.27411272 1551.01394083 2048.27869659 1541.89817532 2048.28437964 C1526.36190807 2048.2938892 1510.82564262 2048.2985983 1495.28937274 2048.30068898 C1479.54166909 2048.30281742 1463.79396822 2048.30707719 1448.0462659 2048.3139317 C1447.05207731 2048.31436232 1446.05788872 2048.31479293 1445.0335732 2048.31523659 C1440.98444351 2048.31699495 1436.93531382 2048.31876459 1432.88618414 2048.32054961 C1383.79373442 2048.34214939 1334.70128415 2048.35302861 1285.60883075 2048.36202585 C1269.68803569 2048.36495994 1253.76724077 2048.36832985 1237.84644586 2048.37199306 C1236.72323104 2048.37225136 1235.60001623 2048.37250965 1234.4427646 2048.37277576 C1229.8985727 2048.373822 1225.3543808 2048.37487042 1220.81018889 2048.37592159 C1143.07604431 2048.39388709 1065.34189951 2048.40926554 987.60775314 2048.41668062 C981.50169854 2048.41726459 975.39564394 2048.41786185 969.28958934 2048.41845823 C967.47272523 2048.41863541 967.47272523 2048.41863541 965.6191568 2048.41881617 C953.34764598 2048.42001355 941.07613516 2048.42122232 928.80462434 2048.42244871 C926.34415784 2048.42269394 923.88369133 2048.4229378 921.42322482 2048.42318027 C842.41772154 2048.43096845 763.41223312 2048.45334795 684.40673633 2048.4858567 C627.64037612 2048.50920674 570.87401885 2048.53075624 514.10765392 2048.53786302 C512.35597482 2048.53808355 512.35597482 2048.53808355 510.56890826 2048.53830853 C484.93105436 2048.54149359 459.29320048 2048.54354432 433.6553464 2048.54453608 C423.33920107 2048.54495081 413.02305575 2048.54550571 402.70691043 2048.54609799 C401.57788624 2048.54615866 400.44886204 2048.54621933 399.28562499 2048.54628184 C362.93753931 2048.54829672 326.58947119 2048.56252705 290.24139163 2048.583043 C253.61969957 2048.60364003 216.99802779 2048.61150971 180.37633051 2048.60196523 C175.31071971 2048.60064686 170.24510888 2048.59946879 165.17949802 2048.59837461 C164.18653848 2048.59815476 163.19357894 2048.59793491 162.17052971 2048.5977084 C146.47581322 2048.59459944 130.78113562 2048.60489969 115.08642814 2048.62085015 C99.63682437 2048.63627141 84.18727417 2048.63731981 68.7376685 2048.62330192 C59.69152887 2048.61551969 50.64555338 2048.61852555 41.59943032 2048.63793908 C35.57475084 2048.64976038 29.55019002 2048.64679451 23.52551675 2048.63232444 C20.12094756 2048.62454639 16.71695332 2048.62482923 13.31236794 2048.63894347 C-26.17881348 2048.79188824 -63.66251307 2040.86139712 -98.5697276 2022.1276505 C-99.21184186 2021.79184972 -99.85395612 2021.45604894 -100.51552838 2021.11007237 C-127.41821396 2007.01341287 -152.11909932 1986.28060439 -170.5697276 1962.1276505 C-170.98786725 1961.59123937 -171.4060069 1961.05482823 -171.83681744 1960.50216222 C-179.77763939 1950.28425671 -186.3859102 1939.48484178 -192.5697276 1928.1276505 C-192.94226666 1927.44589757 -193.31480572 1926.76414464 -193.69863385 1926.06173253 C-209.30021004 1897.15419952 -218.76470067 1863.46283687 -218.6973781 1830.54394817 C-218.69902888 1829.39897115 -218.70067966 1828.25399412 -218.70238046 1827.07432082 C-218.70594777 1823.89962397 -218.70505833 1820.72496475 -218.70227868 1817.55026829 C-218.70035147 1814.08224901 -218.70424149 1810.61423531 -218.70737547 1807.14621758 C-218.71208525 1801.04576375 -218.71307472 1794.94531803 -218.71164712 1788.84486267 C-218.70952564 1779.71206441 -218.71313983 1770.57927455 -218.7178619 1761.44647759 C-218.72573567 1745.88140175 -218.72882396 1730.31632819 -218.72930783 1714.75125051 C-218.72981009 1698.97452614 -218.73245575 1683.19780435 -218.73771542 1667.42108083 C-218.73804556 1666.42506947 -218.73837569 1665.42905812 -218.73871583 1664.4028646 C-218.74006582 1660.34632511 -218.74142848 1656.28978563 -218.74280793 1652.23324615 C-218.75911411 1604.19648707 -218.76549703 1556.15972848 -218.7702558 1508.12296711 C-218.77263868 1484.20451552 -218.77634209 1460.28606421 -218.7802929 1436.36761283 C-218.79295776 1359.65093277 -218.80374157 1282.93425272 -218.80713336 1206.21757163 C-218.8072956 1202.55058723 -218.80746116 1198.88360282 -218.80762774 1195.21661842 C-218.80796154 1187.86238122 -218.80829202 1180.50814402 -218.8086223 1173.15390682 C-218.8090092 1164.54381914 -218.80939881 1155.93373145 -218.80979336 1147.32364377 C-218.80990578 1144.85936352 -218.8100172 1142.39508327 -218.81012762 1139.93080302 C-218.81367705 1060.78682044 -218.82875521 981.64284693 -218.85206536 902.49886781 C-218.8688074 845.63228153 -218.88428222 788.76569695 -218.88880032 731.89910817 C-218.88889381 730.72956903 -218.88898729 729.56002989 -218.88908361 728.35505016 C-218.89110269 702.68037131 -218.89225871 677.00569249 -218.8926122 651.33101357 C-218.89274837 642.1439617 -218.89295737 632.95690983 -218.89320545 623.76985797 C-218.89326701 621.48433947 -218.89332533 619.19882097 -218.8933804 616.91330247 C-218.89430013 580.49796789 -218.90426734 544.08264279 -218.91883789 507.66731133 C-218.93345613 470.98599384 -218.93849432 434.30468797 -218.93041835 397.62336809 C-218.92930299 392.55258971 -218.92829233 387.48181132 -218.92734402 382.41103292 C-218.92715406 381.41703717 -218.92696409 380.42304142 -218.92676836 379.39892459 C-218.92403656 363.67092495 -218.93137078 347.94294683 -218.94291739 332.21495187 C-218.95406622 316.74276349 -218.95448138 301.27060548 -218.94354721 285.79841662 C-218.93746016 276.73240208 -218.93952046 267.66647932 -218.95379918 258.60047347 C-218.962471 252.57027255 -218.96014876 246.54013878 -218.94910047 240.50994195 C-218.94314967 237.09739371 -218.94335037 233.68516956 -218.95378533 230.27261108 C-219.0098857 210.6292905 -217.61198645 191.80612126 -212.8822276 172.6901505 C-212.50203473 171.13856236 -212.50203473 171.13856236 -212.11416119 169.55562901 C-207.88061256 152.90460225 -201.73669336 137.2203795 -193.5697276 122.1276505 C-193.18558697 121.40094151 -192.80144635 120.67423253 -192.4056651 119.92550206 C-177.82884582 92.35885592 -157.28167432 67.25948022 -132.5697276 48.1276505 C-132.01688092 47.69839269 -131.46403424 47.26913487 -130.89443463 46.82686925 C-93.89412179 18.30344008 -47.01175986 -0.09627525 0 0 Z " fill="#007EBB" transform="translate(218.56972759962082,-0.12765049934387207)"/>
<path d="M0 0 C0.69322861 -0.00282738 1.38645721 -0.00565475 2.10069275 -0.00856781 C5.78344075 -0.02345749 9.46615074 -0.03274627 13.14892578 -0.03710938 C16.1252902 -0.04145408 19.1013582 -0.05520328 22.07763672 -0.078125 C46.63356548 -0.26320949 70.70905864 1.02716732 94.90625 5.640625 C96.07124023 5.8567041 97.23623047 6.0727832 98.43652344 6.29541016 C107.11021927 7.9345814 115.65645838 9.81080595 124.15625 12.203125 C125.01009277 12.43725098 125.86393555 12.67137695 126.74365234 12.91259766 C175.79029051 26.40740322 222.12504589 48.04751154 259.703125 82.93359375 C261.85867371 84.92781954 264.05111135 86.85595903 266.28125 88.765625 C273.47187022 95.0298463 280.04141804 101.89317408 286.15625 109.203125 C286.8366333 110.01281738 286.8366333 110.01281738 287.53076172 110.83886719 C310.90086186 138.75751031 330.0625927 170.16481965 343.15625 204.203125 C343.69113037 205.58975342 343.69113037 205.58975342 344.23681641 207.00439453 C366.01493432 264.0881739 374.34925614 323.510769 374.27650452 384.34793091 C374.27638327 387.07758507 374.27777595 389.80723802 374.27909368 392.53689182 C374.28115378 398.4452132 374.27954718 404.35352444 374.27545547 410.26184464 C374.26938841 419.0471239 374.26912263 427.83239685 374.26999746 436.61767782 C374.27130756 451.40018157 374.26798444 466.18268082 374.26198006 480.96518326 C374.25605405 495.59234769 374.2522123 510.21951025 374.25112724 524.84667587 C374.2510585 525.75765474 374.25098976 526.66863361 374.25091894 527.6072179 C374.25058059 532.23400619 374.25027921 536.86079449 374.24999207 541.48758279 C374.24789413 574.22137808 374.24116368 606.95517093 374.23168945 639.68896484 C374.22249856 671.48063138 374.21543503 703.27229725 374.21118164 735.06396484 C374.210911 737.06466488 374.21064029 739.06536492 374.21036953 741.06606495 C374.20818061 757.32374895 374.20613809 773.58143296 374.20413104 789.83911698 C374.19475171 864.9604553 374.17467916 940.08178725 374.15625 1015.203125 C274.16625 1015.203125 174.17625 1015.203125 71.15625 1015.203125 C71.13046875 976.87671875 71.1046875 938.5503125 71.078125 899.0625 C71.05445542 876.19797094 71.0305109 853.33344848 71.0015986 830.46892643 C70.98464615 817.04651014 70.96787748 803.62409365 70.95167629 790.20167643 C70.94971664 788.57853859 70.94775119 786.95540076 70.94577987 785.33226293 C70.91451393 759.54912276 70.89594555 733.7659931 70.88415753 707.98283727 C70.87195334 681.43898836 70.84659984 654.89518268 70.80517386 628.35136255 C70.79930151 624.58478968 70.79357635 620.8182166 70.78794098 617.05164337 C70.78682752 616.31047503 70.78571406 615.56930668 70.78456686 614.80567869 C70.767165 602.97200608 70.76324229 591.13836728 70.76462079 579.30468358 C70.76571635 567.34902945 70.75199304 555.39346001 70.72408572 543.43783793 C70.70940875 536.98390206 70.70108781 530.5300903 70.71044731 524.07613754 C70.74073826 500.3287747 70.51367333 476.71912001 68.37213135 453.05426025 C68.29450065 452.17752434 68.21686995 451.30078842 68.13688681 450.39748475 C66.98750216 437.80482497 64.8324277 425.55569724 62.15625 413.203125 C61.92295117 412.09944525 61.68965233 410.9957655 61.44928384 409.85864091 C55.71924384 382.90496701 45.78874335 356.3936259 29.15625 334.203125 C28.08310547 332.76839844 28.08310547 332.76839844 26.98828125 331.3046875 C8.26375213 307.49827343 -15.27441418 293.31397167 -43.84375 284.203125 C-44.83890625 283.87441406 -45.8340625 283.54570313 -46.859375 283.20703125 C-49.50678783 282.40364968 -52.1369411 281.77696849 -54.84375 281.203125 C-56.09929688 280.92597656 -57.35484375 280.64882812 -58.6484375 280.36328125 C-89.89896221 274.25266899 -125.31116233 277.0203421 -155.84375 285.203125 C-156.85695313 285.47116943 -156.85695313 285.47116943 -157.890625 285.74462891 C-197.10261356 296.48467724 -229.12887859 323.56116824 -249.48095703 358.18383789 C-266.24856387 387.66878059 -275.02487147 420.65552362 -278.84375 454.203125 C-278.93696179 455.01002517 -279.03017358 455.81692535 -279.12620997 456.64827704 C-281.72606823 480.4800636 -281.15476181 504.51634567 -281.16042423 528.45133066 C-281.16376937 534.32270589 -281.17644832 540.1940567 -281.1888241 546.06541876 C-281.21378005 558.05424885 -281.22975108 570.04307454 -281.24040604 582.0319252 C-281.25096927 593.88372867 -281.26564586 605.7355156 -281.28568649 617.58730698 C-281.28693536 618.32721527 -281.28818423 619.06712357 -281.28947094 619.82945333 C-281.29583565 623.58784453 -281.30227259 627.34623561 -281.30873732 631.10462664 C-281.3542682 657.65014611 -281.39077195 684.19567096 -281.421875 710.74121094 C-281.45209162 736.51237781 -281.48648743 762.28353369 -281.52636719 788.0546875 C-281.52887388 789.67832001 -281.53138046 791.30195252 -281.53388691 792.92558503 C-281.55427861 806.1205861 -281.57495654 819.31558673 -281.59570378 832.51058725 C-281.69125048 893.40808668 -281.76590212 954.30559513 -281.84375 1015.203125 C-378.20375 1015.203125 -474.56375 1015.203125 -573.84375 1015.203125 C-573.84375 690.153125 -573.84375 365.103125 -573.84375 30.203125 C-477.48375 30.203125 -381.12375 30.203125 -281.84375 30.203125 C-281.51375 73.433125 -281.18375 116.663125 -280.84375 161.203125 C-278.53375 157.243125 -276.22375 153.283125 -273.84375 149.203125 C-271.67868097 146.04294704 -269.50895901 142.95370524 -267.21875 139.890625 C-266.61756348 139.08157715 -266.01637695 138.2725293 -265.39697266 137.43896484 C-259.57679856 129.69650346 -253.34504367 122.37773094 -246.84375 115.203125 C-246.06620361 114.34098389 -246.06620361 114.34098389 -245.27294922 113.46142578 C-236.9814297 104.2916444 -228.55183025 95.18680697 -219.1328125 87.15625 C-217.36089088 85.64437149 -215.60961614 84.10827659 -213.8671875 82.5625 C-195.59256456 66.43719897 -175.14836631 52.87669159 -153.75830078 41.24853516 C-151.91275261 40.24080278 -150.07887695 39.21431444 -148.24609375 38.18359375 C-103.73265466 13.43633543 -50.83440279 0.1641928 0 0 Z " fill="#FEFEFE" transform="translate(1388.84375,747.796875)"/>
<path d="M0 0 C100.65 0 201.3 0 305 0 C305 325.05 305 650.1 305 985 C204.35 985 103.7 985 0 985 C0 659.95 0 334.9 0 0 Z " fill="#FFFFFF" transform="translate(314,778)"/>
<path d="M0 0 C0.83514633 -0.00992981 1.67029266 -0.01985962 2.53074646 -0.03009033 C36.85264568 -0.35368494 68.83256436 3.8513955 99.19140625 21.23828125 C100.14080078 21.77171143 100.14080078 21.77171143 101.109375 22.31591797 C113.92766344 29.55978606 125.51295415 38.07481833 136.19140625 48.23828125 C136.75230957 48.76663574 137.31321289 49.29499023 137.89111328 49.83935547 C162.4180841 73.07440284 178.87074682 101.84323798 188.19140625 134.23828125 C188.45260254 135.13111816 188.71379883 136.02395508 188.98291016 136.94384766 C200.94423193 179.79691751 193.55497293 230.6161509 172.19140625 269.23828125 C163.61029722 284.38800342 153.17604549 297.66309457 141.19140625 310.23828125 C140.42570312 311.0684375 139.66 311.89859375 138.87109375 312.75390625 C111.63360889 341.37634797 67.88588951 362.17324465 28.15991211 363.4152832 C26.74211787 363.44138523 25.32420528 363.46157396 23.90625 363.4765625 C23.13619125 363.48635635 22.36613251 363.49615021 21.57273865 363.50624084 C4.42938672 363.67932551 -12.08940241 363.50659627 -28.80859375 359.23828125 C-30.0932251 358.91682129 -30.0932251 358.91682129 -31.40380859 358.58886719 C-76.94954917 346.85441237 -117.2767491 316.59203349 -141.4609375 276.3125 C-150.79328634 260.34534473 -158.12263367 243.13904088 -162.80859375 225.23828125 C-163.00759277 224.49368652 -163.2065918 223.7490918 -163.41162109 222.98193359 C-170.41445101 195.29752736 -169.80930008 161.61334545 -161.80859375 134.23828125 C-161.5569043 133.34141602 -161.30521484 132.44455078 -161.04589844 131.52050781 C-155.59699419 112.48703975 -147.2249199 94.42319673 -135.80859375 78.23828125 C-135.09058594 77.21605469 -134.37257813 76.19382812 -133.6328125 75.140625 C-128.20896636 67.67440696 -122.18104582 60.88835788 -115.80859375 54.23828125 C-115.33019043 53.73264648 -114.85178711 53.22701172 -114.35888672 52.70605469 C-85.84380246 22.67512343 -41.90941662 0.40564702 0 0 Z " fill="#FEFEFE" transform="translate(451.80859375,284.76171875)"/>
</svg>
