<svg id="svg" version="1.1" xmlns="http://www.w3.org/2000/svg" xmlns:xlink="http://www.w3.org/1999/xlink" width="400" height="400" viewBox="0, 0, 400,400"><g id="svgg"><path id="path0" d="M198.000 29.600 C 198.000 29.820,197.640 30.000,197.200 30.000 C 196.760 30.000,196.400 30.180,196.400 30.400 C 196.400 30.620,196.040 30.800,195.600 30.800 C 195.160 30.800,194.800 30.980,194.800 31.200 C 194.800 31.420,194.440 31.600,194.000 31.600 C 193.560 31.600,193.200 31.780,193.200 32.000 C 193.200 32.220,192.840 32.400,192.400 32.400 C 191.960 32.400,191.600 32.580,191.600 32.800 C 191.600 33.020,191.240 33.200,190.800 33.200 C 190.360 33.200,190.000 33.380,190.000 33.600 C 190.000 33.820,189.640 34.000,189.200 34.000 C 188.760 34.000,188.400 34.180,188.400 34.400 C 188.400 34.620,188.040 34.800,187.600 34.800 C 187.160 34.800,186.800 34.980,186.800 35.200 C 186.800 35.420,186.440 35.600,186.000 35.600 C 185.560 35.600,185.200 35.780,185.200 36.000 C 185.200 36.220,184.840 36.400,184.400 36.400 C 183.960 36.400,183.600 36.580,183.600 36.800 C 183.600 37.020,183.240 37.200,182.800 37.200 C 182.360 37.200,182.000 37.380,182.000 37.600 C 182.000 37.820,181.640 38.000,181.200 38.000 C 180.760 38.000,180.400 38.180,180.400 38.400 C 180.400 38.620,180.040 38.800,179.600 38.800 C 179.160 38.800,178.800 38.980,178.800 39.200 C 178.800 39.420,178.440 39.600,178.000 39.600 C 177.560 39.600,177.200 39.780,177.200 40.000 C 177.200 40.220,176.840 40.400,176.400 40.400 C 175.960 40.400,175.600 40.580,175.600 40.800 C 175.600 41.020,175.240 41.200,174.800 41.200 C 174.360 41.200,174.000 41.380,174.000 41.600 C 174.000 41.820,173.640 42.000,173.200 42.000 C 172.760 42.000,172.400 42.180,172.400 42.400 C 172.400 42.620,172.040 42.800,171.600 42.800 C 171.160 42.800,170.800 42.980,170.800 43.200 C 170.800 43.420,170.440 43.600,170.000 43.600 C 169.560 43.600,169.200 43.780,169.200 44.000 C 169.200 44.220,168.840 44.400,168.400 44.400 C 167.960 44.400,167.600 44.580,167.600 44.800 C 167.600 45.020,167.240 45.200,166.800 45.200 C 166.360 45.200,166.000 45.380,166.000 45.600 C 166.000 45.820,165.640 46.000,165.200 46.000 C 164.760 46.000,164.400 46.180,164.400 46.400 C 164.400 46.620,164.040 46.800,163.600 46.800 C 163.160 46.800,162.800 46.980,162.800 47.200 C 162.800 47.420,162.440 47.600,162.000 47.600 C 161.560 47.600,161.200 47.780,161.200 48.000 C 161.200 48.220,160.840 48.400,160.400 48.400 C 159.960 48.400,159.600 48.580,159.600 48.800 C 159.600 49.020,159.240 49.200,158.800 49.200 C 158.360 49.200,158.000 49.380,158.000 49.600 C 158.000 49.820,157.640 50.000,157.200 50.000 C 156.760 50.000,156.400 50.180,156.400 50.400 C 156.400 50.620,156.040 50.800,155.600 50.800 C 155.160 50.800,154.800 50.980,154.800 51.200 C 154.800 51.420,154.440 51.600,154.000 51.600 C 153.560 51.600,153.200 51.780,153.200 52.000 C 153.200 52.220,152.840 52.400,152.400 52.400 C 151.960 52.400,151.600 52.580,151.600 52.800 C 151.600 53.020,151.240 53.200,150.800 53.200 C 150.360 53.200,150.000 53.380,150.000 53.600 C 150.000 53.820,149.655 54.000,149.233 54.000 C 148.812 54.000,148.407 54.136,148.333 54.302 C 148.260 54.468,146.985 55.215,145.500 55.962 L 142.800 57.320 142.800 64.860 C 142.800 69.007,142.653 72.400,142.474 72.400 C 142.295 72.400,139.652 71.140,136.600 69.600 C 133.548 68.060,130.815 66.800,130.526 66.800 C 130.237 66.800,130.000 66.620,130.000 66.400 C 130.000 66.180,129.640 66.000,129.200 66.000 C 128.760 66.000,128.400 65.820,128.400 65.600 C 128.400 65.380,127.500 65.200,126.400 65.200 C 125.300 65.200,124.400 65.380,124.400 65.600 C 124.400 65.820,124.040 66.000,123.600 66.000 C 123.160 66.000,122.800 66.180,122.800 66.400 C 122.800 66.620,122.440 66.800,122.000 66.800 C 121.560 66.800,121.200 66.980,121.200 67.200 C 121.200 67.420,120.840 67.600,120.400 67.600 C 119.960 67.600,119.600 67.780,119.600 68.000 C 119.600 68.220,119.240 68.400,118.800 68.400 C 118.360 68.400,118.000 68.580,118.000 68.800 C 118.000 69.020,117.640 69.200,117.200 69.200 C 116.760 69.200,116.400 69.380,116.400 69.600 C 116.400 69.820,116.040 70.000,115.600 70.000 C 115.160 70.000,114.800 70.180,114.800 70.400 C 114.800 70.620,114.440 70.800,114.000 70.800 C 113.560 70.800,113.200 70.980,113.200 71.200 C 113.200 71.420,112.840 71.600,112.400 71.600 C 111.960 71.600,111.600 71.780,111.600 72.000 C 111.600 72.220,111.240 72.400,110.800 72.400 C 110.360 72.400,110.000 72.580,110.000 72.800 C 110.000 73.020,109.640 73.200,109.200 73.200 C 108.760 73.200,108.400 73.380,108.400 73.600 C 108.400 73.820,108.040 74.000,107.600 74.000 C 107.160 74.000,106.800 74.180,106.800 74.400 C 106.800 74.620,106.440 74.800,106.000 74.800 C 105.560 74.800,105.200 74.980,105.200 75.200 C 105.200 75.420,104.840 75.600,104.400 75.600 C 103.960 75.600,103.600 75.780,103.600 76.000 C 103.600 76.220,103.240 76.400,102.800 76.400 C 102.360 76.400,102.000 76.580,102.000 76.800 C 102.000 77.020,101.640 77.200,101.200 77.200 C 100.760 77.200,100.400 77.380,100.400 77.600 C 100.400 77.820,100.040 78.000,99.600 78.000 C 99.160 78.000,98.800 78.180,98.800 78.400 C 98.800 78.620,98.440 78.800,98.000 78.800 C 97.560 78.800,97.200 78.980,97.200 79.200 C 97.200 79.420,96.840 79.600,96.400 79.600 C 95.960 79.600,95.600 79.780,95.600 80.000 C 95.600 80.220,95.240 80.400,94.800 80.400 C 94.360 80.400,94.000 80.580,94.000 80.800 C 94.000 81.020,93.640 81.200,93.200 81.200 C 92.760 81.200,92.400 81.380,92.400 81.600 C 92.400 81.820,92.040 82.000,91.600 82.000 C 91.160 82.000,90.800 82.180,90.800 82.400 C 90.800 82.620,90.440 82.800,90.000 82.800 C 89.560 82.800,89.200 82.980,89.200 83.200 C 89.200 83.420,88.840 83.600,88.400 83.600 C 87.960 83.600,87.600 83.780,87.600 84.000 C 87.600 84.220,87.240 84.400,86.800 84.400 C 86.360 84.400,86.000 84.580,86.000 84.800 C 86.000 85.020,85.640 85.200,85.200 85.200 C 84.760 85.200,84.400 85.380,84.400 85.600 C 84.400 85.820,84.040 86.000,83.600 86.000 C 83.160 86.000,82.800 86.180,82.800 86.400 C 82.800 86.620,82.440 86.800,82.000 86.800 C 81.560 86.800,81.200 86.980,81.200 87.200 C 81.200 87.420,80.840 87.600,80.400 87.600 C 79.960 87.600,79.600 87.780,79.600 88.000 C 79.600 88.220,79.240 88.400,78.800 88.400 C 78.360 88.400,78.000 88.580,78.000 88.800 C 78.000 89.020,77.640 89.200,77.200 89.200 C 76.760 89.200,76.400 89.380,76.400 89.600 C 76.400 89.820,76.055 90.000,75.633 90.000 C 75.212 90.000,74.807 90.136,74.733 90.302 C 74.660 90.468,73.385 91.215,71.900 91.962 L 69.200 93.320 69.200 200.060 C 69.200 287.402,69.295 306.800,69.720 306.800 C 70.456 306.800,72.393 307.741,72.397 308.100 C 72.399 308.265,72.760 308.400,73.200 308.400 C 73.640 308.400,74.000 308.580,74.000 308.800 C 74.000 309.020,74.360 309.200,74.800 309.200 C 75.240 309.200,75.600 309.380,75.600 309.600 C 75.600 309.820,75.960 310.000,76.400 310.000 C 76.840 310.000,77.200 310.180,77.200 310.400 C 77.200 310.620,77.560 310.800,78.000 310.800 C 78.440 310.800,78.800 310.980,78.800 311.200 C 78.800 311.420,79.160 311.600,79.600 311.600 C 80.040 311.600,80.400 311.780,80.400 312.000 C 80.400 312.220,80.760 312.400,81.200 312.400 C 81.640 312.400,82.000 312.580,82.000 312.800 C 82.000 313.020,82.360 313.200,82.800 313.200 C 83.240 313.200,83.600 313.380,83.600 313.600 C 83.600 313.820,83.960 314.000,84.400 314.000 C 84.840 314.000,85.200 314.180,85.200 314.400 C 85.200 314.620,85.434 314.800,85.720 314.800 C 86.456 314.800,88.393 315.741,88.397 316.100 C 88.399 316.265,88.760 316.400,89.200 316.400 C 89.640 316.400,90.000 316.580,90.000 316.800 C 90.000 317.020,90.360 317.200,90.800 317.200 C 91.240 317.200,91.600 317.380,91.600 317.600 C 91.600 317.820,91.825 317.999,92.100 317.998 C 92.512 317.996,100.502 321.751,103.400 323.310 C 103.840 323.546,104.830 324.046,105.600 324.421 C 106.370 324.795,108.150 325.664,109.556 326.351 C 110.962 327.038,112.357 327.600,112.656 327.600 C 112.955 327.600,113.200 327.780,113.200 328.000 C 113.200 328.220,113.560 328.400,114.000 328.400 C 114.440 328.400,114.800 328.580,114.800 328.800 C 114.800 329.020,115.160 329.200,115.600 329.200 C 116.040 329.200,116.400 329.380,116.400 329.600 C 116.400 329.820,116.760 330.000,117.200 330.000 C 117.640 330.000,118.000 330.180,118.000 330.400 C 118.000 330.620,118.234 330.800,118.520 330.800 C 119.256 330.800,121.193 331.741,121.197 332.100 C 121.199 332.265,121.434 332.400,121.720 332.400 C 122.456 332.400,124.393 333.341,124.397 333.700 C 124.411 335.087,128.544 333.847,135.400 330.400 C 139.338 328.420,142.614 326.800,142.680 326.800 C 142.746 326.800,142.800 330.400,142.800 334.800 C 142.800 341.099,142.911 342.800,143.320 342.800 C 144.056 342.800,145.993 343.741,145.997 344.100 C 145.999 344.265,146.360 344.400,146.800 344.400 C 147.240 344.400,147.600 344.580,147.600 344.800 C 147.600 345.020,147.960 345.200,148.400 345.200 C 148.840 345.200,149.200 345.380,149.200 345.600 C 149.200 345.820,149.560 346.000,150.000 346.000 C 150.440 346.000,150.800 346.180,150.800 346.400 C 150.800 346.620,151.160 346.800,151.600 346.800 C 152.040 346.800,152.400 346.980,152.400 347.200 C 152.400 347.420,152.760 347.600,153.200 347.600 C 153.640 347.600,154.000 347.780,154.000 348.000 C 154.000 348.220,154.360 348.400,154.800 348.400 C 155.240 348.400,155.600 348.580,155.600 348.800 C 155.600 349.020,155.960 349.200,156.400 349.200 C 156.840 349.200,157.200 349.380,157.200 349.600 C 157.200 349.820,157.560 350.000,158.000 350.000 C 158.440 350.000,158.800 350.180,158.800 350.400 C 158.800 350.620,159.034 350.800,159.320 350.800 C 160.056 350.800,161.993 351.741,161.997 352.100 C 161.999 352.265,162.360 352.400,162.800 352.400 C 163.240 352.400,163.600 352.580,163.600 352.800 C 163.600 353.020,163.960 353.200,164.400 353.200 C 164.840 353.200,165.200 353.380,165.200 353.600 C 165.200 353.820,165.425 353.999,165.700 353.998 C 166.112 353.996,174.102 357.751,177.000 359.310 C 177.440 359.546,178.430 360.046,179.200 360.421 C 179.970 360.795,181.750 361.664,183.156 362.351 C 184.562 363.038,185.957 363.600,186.256 363.600 C 186.555 363.600,186.800 363.780,186.800 364.000 C 186.800 364.220,187.160 364.400,187.600 364.400 C 188.040 364.400,188.400 364.580,188.400 364.800 C 188.400 365.020,188.760 365.200,189.200 365.200 C 189.640 365.200,190.000 365.380,190.000 365.600 C 190.000 365.820,190.360 366.000,190.800 366.000 C 191.240 366.000,191.600 366.180,191.600 366.400 C 191.600 366.620,191.834 366.800,192.120 366.800 C 192.856 366.800,194.793 367.741,194.797 368.100 C 194.799 368.265,195.034 368.400,195.320 368.400 C 196.056 368.400,197.993 369.341,197.997 369.700 C 198.017 371.645,201.539 370.130,229.499 356.152 L 257.200 342.303 257.200 334.559 L 257.200 326.814 258.612 327.607 C 259.389 328.043,260.289 328.400,260.612 328.400 C 260.935 328.400,261.200 328.580,261.200 328.800 C 261.200 329.020,261.560 329.200,262.000 329.200 C 262.440 329.200,262.800 329.380,262.800 329.600 C 262.800 329.820,263.160 330.000,263.600 330.000 C 264.040 330.000,264.400 330.180,264.400 330.400 C 264.400 330.620,264.760 330.800,265.200 330.800 C 265.640 330.800,266.000 330.980,266.000 331.200 C 266.000 331.420,266.234 331.600,266.520 331.600 C 267.256 331.600,269.193 332.541,269.197 332.900 C 269.199 333.065,269.434 333.200,269.720 333.200 C 270.456 333.200,272.393 334.141,272.397 334.500 C 272.417 336.445,275.939 334.930,303.899 320.952 L 331.600 307.103 331.600 200.396 L 331.600 93.689 322.965 89.378 C 318.216 87.007,314.076 85.067,313.765 85.067 C 313.454 85.067,313.287 84.979,313.394 84.873 C 313.501 84.766,312.286 84.056,310.694 83.296 C 309.102 82.536,306.765 81.393,305.500 80.757 C 304.235 80.121,302.165 79.080,300.900 78.444 C 289.981 72.958,278.910 67.598,278.500 67.599 C 278.225 67.599,278.000 67.420,278.000 67.200 C 278.000 66.980,277.640 66.800,277.200 66.800 C 276.760 66.800,276.400 66.620,276.400 66.400 C 276.400 66.180,275.500 66.000,274.400 66.000 C 273.300 66.000,272.400 66.180,272.400 66.400 C 272.400 66.620,272.040 66.800,271.600 66.800 C 271.160 66.800,270.800 66.980,270.800 67.200 C 270.800 67.420,270.440 67.600,270.000 67.600 C 269.560 67.600,269.200 67.780,269.200 68.000 C 269.200 68.220,268.840 68.400,268.400 68.400 C 267.960 68.400,267.600 68.580,267.600 68.800 C 267.600 69.020,267.240 69.200,266.800 69.200 C 266.360 69.200,266.000 69.380,266.000 69.600 C 266.000 69.820,265.640 70.000,265.200 70.000 C 264.760 70.000,264.400 70.180,264.400 70.400 C 264.400 70.620,264.040 70.800,263.600 70.800 C 263.160 70.800,262.800 70.980,262.800 71.200 C 262.800 71.420,262.440 71.600,262.000 71.600 C 261.560 71.600,261.200 71.780,261.200 72.000 C 261.200 72.220,260.840 72.400,260.400 72.400 C 259.960 72.400,259.600 72.580,259.600 72.800 C 259.600 73.020,259.240 73.200,258.800 73.200 C 258.360 73.200,258.000 73.380,258.000 73.600 C 258.000 73.820,257.820 74.000,257.600 74.000 C 257.346 74.000,257.200 70.882,257.200 65.445 L 257.200 56.889 248.565 52.578 C 243.816 50.207,239.676 48.267,239.365 48.267 C 239.054 48.267,238.887 48.179,238.994 48.073 C 239.101 47.966,237.886 47.256,236.294 46.496 C 234.702 45.736,232.365 44.593,231.100 43.957 C 229.835 43.321,227.765 42.280,226.500 41.644 C 215.581 36.158,204.510 30.798,204.100 30.799 C 203.825 30.799,203.600 30.620,203.600 30.400 C 203.600 30.180,203.240 30.000,202.800 30.000 C 202.360 30.000,202.000 29.820,202.000 29.600 C 202.000 29.380,201.100 29.200,200.000 29.200 C 198.900 29.200,198.000 29.380,198.000 29.600 M172.567 71.847 L 199.600 85.294 199.600 93.645 L 199.600 101.996 191.554 106.023 C 187.128 108.238,183.252 109.952,182.939 109.832 C 182.470 109.652,182.383 108.222,182.443 101.707 L 182.517 93.800 163.258 84.097 L 144.000 74.393 144.000 66.397 C 144.000 58.783,144.037 58.400,144.767 58.400 C 145.188 58.400,157.698 64.451,172.567 71.847 M255.600 67.175 C 255.600 73.828,255.487 75.596,255.039 75.967 C 254.731 76.223,246.181 80.559,236.039 85.602 L 217.600 94.771 217.600 102.386 C 217.600 106.574,217.496 110.000,217.369 110.000 C 217.243 110.000,213.279 108.091,208.561 105.758 L 199.983 101.516 200.092 93.661 L 200.200 85.806 223.824 74.003 C 252.178 59.836,254.913 58.507,255.300 58.699 C 255.465 58.780,255.600 62.595,255.600 67.175 M98.967 107.847 L 126.000 121.294 126.000 226.647 L 126.000 332.000 124.900 331.997 C 124.265 331.996,113.489 326.872,99.400 319.871 C 85.980 313.203,73.965 307.243,72.700 306.627 L 70.400 305.506 70.400 199.953 C 70.400 96.198,70.413 94.400,71.167 94.400 C 71.588 94.400,84.098 100.451,98.967 107.847 M181.908 102.677 C 181.996 108.831,181.909 110.377,181.454 110.755 C 181.144 111.012,172.410 115.442,162.045 120.599 L 143.200 129.974 143.200 227.334 L 143.200 324.693 135.100 328.748 C 130.645 330.978,126.865 332.802,126.699 332.802 C 126.534 332.801,126.444 285.331,126.499 227.313 L 126.600 121.826 134.800 117.730 C 161.557 104.366,181.052 94.832,181.400 94.941 C 181.643 95.017,181.843 98.050,181.908 102.677 M246.966 108.649 L 274.000 122.098 274.000 227.449 L 274.000 332.800 272.951 332.800 C 271.764 332.800,258.283 326.304,256.898 325.064 L 255.997 324.258 256.032 227.029 L 256.068 129.800 237.234 120.296 L 218.400 110.793 218.400 102.996 C 218.400 95.584,218.438 95.200,219.166 95.200 C 219.587 95.200,232.097 101.252,246.966 108.649 M329.994 200.524 C 329.991 258.206,329.841 305.631,329.662 305.913 C 329.355 306.397,275.358 333.600,274.705 333.600 C 274.536 333.600,274.444 286.127,274.499 228.104 L 274.600 122.607 298.224 110.804 C 326.575 96.638,329.313 95.307,329.700 95.499 C 329.865 95.580,329.997 142.842,329.994 200.524 M172.566 143.849 L 199.600 157.298 199.600 262.649 L 199.600 368.000 198.500 367.997 C 197.865 367.996,187.089 362.872,173.000 355.871 C 159.580 349.203,147.565 343.243,146.300 342.627 L 144.000 341.506 144.000 235.953 C 144.000 132.252,144.013 130.400,144.766 130.400 C 145.187 130.400,157.697 136.452,172.566 143.849 M255.509 235.433 C 255.569 292.835,255.527 340.181,255.415 340.646 C 255.238 341.381,201.558 368.803,200.299 368.801 C 200.134 368.800,200.044 321.330,200.099 263.312 L 200.200 157.823 209.200 153.330 C 236.396 139.753,254.647 130.831,255.000 130.942 C 255.265 131.024,255.437 166.301,255.509 235.433 " stroke="none" fill="#043cc3" fill-rule="evenodd"></path><path id="path1" d="M227.100 73.046 L 200.400 86.390 200.413 93.695 L 200.426 101.000 208.494 105.000 C 212.932 107.200,216.702 109.059,216.872 109.130 C 217.043 109.202,217.231 105.875,217.291 101.736 L 217.400 94.211 236.100 84.852 L 254.800 75.493 254.800 67.546 C 254.800 61.429,254.685 59.612,254.300 59.651 C 254.025 59.679,241.785 65.707,227.100 73.046 M153.500 109.055 L 126.800 122.406 126.800 227.003 C 126.800 319.494,126.869 331.600,127.397 331.600 C 127.726 331.600,131.325 329.937,135.396 327.905 L 142.798 324.211 142.899 226.809 L 143.000 129.407 162.100 119.854 L 181.200 110.301 181.200 102.950 C 181.200 97.309,181.084 95.612,180.700 95.651 C 180.425 95.680,168.185 101.711,153.500 109.055 M301.500 109.846 L 274.800 123.190 274.800 227.795 C 274.800 320.449,274.868 332.400,275.399 332.400 C 275.729 332.400,287.969 326.416,302.599 319.101 L 329.200 305.803 329.200 201.101 C 329.200 117.580,329.099 96.410,328.700 96.451 C 328.425 96.479,316.185 102.507,301.500 109.846 M227.100 145.055 L 200.400 158.406 200.400 263.003 C 200.400 355.650,200.468 367.600,200.999 367.600 C 201.329 367.600,213.569 361.616,228.199 354.301 L 254.800 341.003 254.800 236.301 C 254.800 152.780,254.699 131.610,254.300 131.651 C 254.025 131.680,241.785 137.711,227.100 145.055 " stroke="none" fill="#04247c" fill-rule="evenodd"></path><path id="path2" d="M144.005 65.700 C 144.008 69.495,144.111 72.960,144.234 73.400 C 144.398 73.986,149.608 76.766,163.729 83.800 L 183.000 93.400 183.108 101.300 C 183.175 106.168,183.369 109.200,183.612 109.200 C 183.830 109.200,187.426 107.489,191.604 105.398 L 199.200 101.596 199.200 93.637 L 199.200 85.678 172.287 72.239 C 157.485 64.848,145.065 58.800,144.687 58.800 C 144.064 58.800,144.001 59.444,144.005 65.700 M70.400 199.524 C 70.400 282.701,70.503 304.376,70.900 304.875 C 71.175 305.220,77.238 308.359,84.373 311.851 C 91.508 315.343,103.560 321.293,111.156 325.072 C 118.751 328.852,125.108 331.857,125.283 331.749 C 125.457 331.641,125.600 284.331,125.600 226.615 L 125.600 121.678 98.687 108.239 C 83.885 100.848,71.465 94.800,71.087 94.800 C 70.439 94.800,70.400 100.820,70.400 199.524 M218.891 103.100 L 219.000 110.600 237.800 120.000 L 256.600 129.400 256.701 227.060 L 256.802 324.720 264.891 328.728 C 269.341 330.932,273.121 332.649,273.291 332.544 C 273.461 332.439,273.600 285.124,273.600 227.401 L 273.600 122.448 246.581 109.024 C 231.720 101.641,219.386 95.600,219.172 95.600 C 218.929 95.600,218.823 98.429,218.891 103.100 M144.324 235.500 C 144.256 293.085,144.265 340.427,144.344 340.703 C 144.423 340.980,150.442 344.130,157.718 347.703 C 164.995 351.277,177.162 357.293,184.757 361.072 C 192.352 364.852,198.708 367.857,198.883 367.749 C 199.057 367.641,199.200 320.313,199.200 262.576 L 199.200 157.600 172.162 144.200 C 157.290 136.830,144.971 130.800,144.786 130.800 C 144.601 130.800,144.393 177.915,144.324 235.500 " stroke="none" fill="#0454fb" fill-rule="evenodd"></path><path id="path3" d="M144.600 58.676 C 145.040 58.777,157.505 64.893,172.300 72.268 L 199.200 85.678 199.200 93.637 L 199.200 101.596 191.604 105.398 C 187.426 107.489,183.830 109.200,183.612 109.200 C 183.369 109.200,183.175 106.168,183.108 101.300 L 183.000 93.400 163.720 83.800 C 153.116 78.520,144.351 73.930,144.243 73.600 C 144.119 73.224,144.075 73.279,144.123 73.748 C 144.181 74.309,148.964 76.895,163.358 84.148 L 182.517 93.800 182.443 101.707 C 182.383 108.222,182.470 109.652,182.939 109.832 C 183.252 109.952,187.128 108.238,191.554 106.023 L 199.600 101.996 199.600 93.645 L 199.600 85.294 172.567 71.847 C 157.698 64.451,145.143 58.421,144.667 58.446 C 143.861 58.490,143.856 58.506,144.600 58.676 M71.000 94.676 C 71.440 94.777,83.906 100.894,98.701 108.269 L 125.603 121.679 125.501 226.840 C 125.446 284.678,125.535 332.000,125.700 332.000 C 125.865 332.000,126.000 284.591,126.000 226.647 L 126.000 121.294 98.967 107.847 C 84.098 100.451,71.543 94.421,71.067 94.446 C 70.261 94.490,70.256 94.506,71.000 94.676 M218.400 102.996 L 218.400 110.793 237.234 120.296 L 256.068 129.800 256.032 227.029 L 255.997 324.258 256.898 325.064 C 257.953 326.008,271.642 332.806,272.451 332.788 C 272.753 332.781,269.355 330.963,264.901 328.748 L 256.802 324.720 256.701 227.060 L 256.600 129.400 237.800 120.000 L 219.000 110.600 218.891 103.100 C 218.823 98.429,218.929 95.600,219.172 95.600 C 219.386 95.600,231.720 101.641,246.582 109.025 L 273.603 122.450 273.501 227.625 C 273.446 285.471,273.535 332.800,273.700 332.800 C 273.865 332.800,274.000 285.392,274.000 227.449 L 274.000 122.098 246.966 108.649 C 232.097 101.252,219.587 95.200,219.166 95.200 C 218.438 95.200,218.400 95.584,218.400 102.996 M144.099 228.300 L 144.198 326.200 144.300 228.500 C 144.360 170.796,144.549 130.800,144.762 130.800 C 144.961 130.800,157.291 136.830,172.163 144.201 L 199.203 157.602 199.101 262.801 C 199.046 320.660,199.135 368.000,199.300 368.000 C 199.465 368.000,199.600 320.592,199.600 262.649 L 199.600 157.298 172.566 143.849 C 157.697 136.452,145.187 130.400,144.766 130.400 C 144.013 130.400,144.002 132.102,144.099 228.300 M70.400 304.877 C 70.400 305.246,71.349 305.969,72.700 306.627 C 73.965 307.243,85.980 313.203,99.400 319.871 C 112.820 326.539,124.070 331.992,124.400 331.989 C 125.015 331.983,107.403 323.122,84.373 311.851 C 77.238 308.359,71.175 305.220,70.900 304.875 C 70.446 304.305,70.400 304.305,70.400 304.877 M144.000 340.877 C 144.000 341.246,144.949 341.969,146.300 342.627 C 147.565 343.243,159.580 349.203,173.000 355.871 C 186.420 362.539,197.670 367.992,198.000 367.989 C 198.615 367.983,181.003 359.122,157.973 347.851 C 150.838 344.359,144.775 341.220,144.500 340.875 C 144.046 340.305,144.000 340.305,144.000 340.877 " stroke="none" fill="#044be4" fill-rule="evenodd"></path><path id="path4" d="M251.224 60.375 C 249.147 61.379,236.817 67.511,223.824 74.003 L 200.200 85.806 200.092 93.661 L 199.983 101.516 208.561 105.758 C 213.279 108.091,217.243 110.000,217.369 110.000 C 217.496 110.000,217.600 106.574,217.600 102.386 L 217.600 94.771 236.039 85.602 C 246.181 80.559,254.731 76.223,255.039 75.967 C 255.652 75.459,255.901 58.996,255.300 58.699 C 255.135 58.617,253.301 59.371,251.224 60.375 M254.800 67.546 L 254.800 75.493 236.100 84.852 L 217.400 94.211 217.291 101.736 C 217.231 105.875,217.043 109.202,216.872 109.130 C 216.702 109.059,212.932 107.200,208.494 105.000 L 200.426 101.000 200.413 93.695 L 200.400 86.390 227.100 73.046 C 241.785 65.707,254.025 59.679,254.300 59.651 C 254.685 59.612,254.800 61.429,254.800 67.546 M162.000 104.225 C 151.550 109.400,139.310 115.477,134.800 117.730 L 126.600 121.826 126.499 227.313 C 126.444 285.331,126.534 332.801,126.699 332.802 C 126.865 332.802,130.645 330.978,135.100 328.748 L 143.200 324.693 143.200 227.334 L 143.200 129.974 162.045 120.599 C 172.410 115.442,181.144 111.012,181.454 110.755 C 182.138 110.188,182.087 95.156,181.400 94.941 C 181.180 94.872,172.450 99.050,162.000 104.225 M325.624 97.175 C 323.547 98.179,311.217 104.312,298.224 110.804 L 274.600 122.607 274.499 228.104 C 274.444 286.127,274.536 333.600,274.705 333.600 C 275.358 333.600,329.355 306.397,329.662 305.913 C 330.071 305.268,330.109 95.701,329.700 95.499 C 329.535 95.417,327.701 96.171,325.624 97.175 M181.200 102.950 L 181.200 110.301 162.100 119.854 L 143.000 129.407 142.899 226.809 L 142.798 324.211 135.396 327.905 C 131.325 329.937,127.726 331.600,127.397 331.600 C 126.869 331.600,126.800 319.494,126.800 227.003 L 126.800 122.406 153.500 109.055 C 168.185 101.711,180.425 95.680,180.700 95.651 C 181.084 95.612,181.200 97.309,181.200 102.950 M329.200 201.101 L 329.200 305.803 302.599 319.101 C 287.969 326.416,275.729 332.400,275.399 332.400 C 274.868 332.400,274.800 320.449,274.800 227.795 L 274.800 123.190 301.500 109.846 C 316.185 102.507,328.425 96.479,328.700 96.451 C 329.099 96.410,329.200 117.580,329.200 201.101 M236.400 139.827 C 226.390 144.782,214.150 150.859,209.200 153.330 L 200.200 157.823 200.099 263.312 C 200.044 321.330,200.134 368.800,200.299 368.801 C 201.558 368.803,255.238 341.381,255.415 340.646 C 255.823 338.949,255.411 131.070,255.000 130.942 C 254.780 130.873,246.410 134.871,236.400 139.827 M254.800 236.301 L 254.800 341.003 228.199 354.301 C 213.569 361.616,201.329 367.600,200.999 367.600 C 200.468 367.600,200.400 355.650,200.400 263.003 L 200.400 158.406 227.100 145.055 C 241.785 137.711,254.025 131.680,254.300 131.651 C 254.699 131.610,254.800 152.780,254.800 236.301 " stroke="none" fill="#042c8f" fill-rule="evenodd"></path></g></svg>